<?xml version="1.0"?>
<svg xmlns="http://www.w3.org/2000/svg" xmlns:xlink="http://www.w3.org/1999/xlink" xmlns:svgjs="http://svgjs.com/svgjs" version="1.1" width="512" height="512" x="0" y="0" viewBox="0 0 512 512" style="enable-background:new 0 0 512 512" xml:space="preserve" class=""><g transform="matrix(-1,1.2246467991473532e-16,-1.2246467991473532e-16,-1,511.99995448440325,511.99998282641167)"><path d="m437.02 74.98a256 256 0 0 0 -362.04 362.04 256 256 0 0 0 362.04-362.04zm-181.02 405.02c-123.514 0-224-100.486-224-224s100.486-224 224-224 224 100.486 224 224-100.486 224-224 224zm71.974-235.313a16 16 0 0 1 0 22.626l-101.321 101.32a16 16 0 0 1 -22.627-22.627l90.007-90.006-90.007-90.006a16 16 0 1 1 22.627-22.627z" fill="#d1d1d1" data-original="#000000" class=""/></g></svg>
